<svg xmlns="http://www.w3.org/2000/svg" xmlns:xlink="http://www.w3.org/1999/xlink" width="500" zoomAndPan="magnify" viewBox="0 0 375 374.999991" height="500" preserveAspectRatio="xMidYMid meet" version="1.0"><defs><clipPath id="e907c1ca0e"><path d="M 76 76.082031 L 299.949219 76.082031 L 299.949219 298.832031 L 76 298.832031 Z M 76 76.082031 " clip-rule="nonzero"/></clipPath></defs><path fill="#a63a3a" d="M 251.503906 185.964844 L 252.359375 186.347656 L 252.359375 185.402344 C 252.300781 181.414062 252.359375 177.515625 252.449219 174.5625 L 252.449219 174.296875 C 252.539062 170.457031 252.625 166.824219 252.507812 163.070312 L 252.421875 161.328125 L 251.414062 162.71875 C 247.164062 168.507812 243.441406 174.414062 238.804688 182.035156 L 238.242188 182.890625 L 239.277344 182.980469 C 243.882812 183.304688 247.664062 184.25 251.503906 185.964844 Z M 245.09375 179.613281 C 246.097656 177.988281 247.164062 176.273438 248.402344 174.386719 C 248.402344 174.445312 248.402344 174.503906 248.402344 174.5625 C 248.34375 176.511719 248.3125 178.492188 248.285156 180.382812 C 247.25 180.117188 246.1875 179.847656 245.09375 179.613281 Z M 245.09375 179.613281 " fill-opacity="1" fill-rule="nonzero"/><path fill="#a63a3a" d="M 207.933594 243.917969 C 208.554688 243.917969 209.175781 243.859375 209.796875 243.742188 C 213.105469 243.0625 215.792969 240.667969 217.003906 237.332031 C 217.417969 236.207031 217.683594 235.027344 217.917969 233.875 L 217.976562 233.550781 C 218.039062 233.34375 218.066406 233.136719 218.125 232.960938 C 218.15625 232.753906 218.214844 232.574219 218.242188 232.367188 C 218.421875 231.601562 218.65625 231.128906 218.953125 231.011719 C 219.070312 230.949219 219.21875 230.921875 219.394531 230.921875 C 219.660156 230.921875 220.015625 231.011719 220.488281 231.15625 C 223.886719 232.28125 226.367188 234.347656 227.875 237.300781 C 229.230469 239.929688 230.175781 242.882812 230.621094 246.074219 C 230.710938 246.636719 230.738281 247.195312 230.769531 247.757812 L 230.769531 247.816406 C 230.855469 249.085938 230.945312 250.386719 231.417969 251.777344 L 231.59375 252.277344 L 232.15625 252.1875 C 235.082031 251.539062 237.976562 251.242188 240.78125 251.242188 C 245.066406 251.242188 249.199219 251.984375 253.394531 253.460938 L 254.546875 253.84375 L 254.164062 252.722656 C 252.894531 248.527344 252.242188 245.246094 251.976562 242.085938 C 251.769531 239.398438 252.125 236.679688 252.449219 234.082031 C 252.566406 233.195312 252.6875 232.191406 252.773438 231.1875 L 252.863281 230.597656 L 251.445312 230.417969 C 250.058594 230.242188 248.875 230.09375 247.664062 229.976562 C 244.414062 229.652344 241.226562 228.734375 238.210938 227.230469 C 235.230469 225.753906 233.132812 223.300781 231.980469 219.933594 C 231.714844 219.136719 231.65625 218.605469 231.832031 218.277344 C 232.007812 217.953125 232.453125 217.71875 233.25 217.539062 C 233.515625 217.480469 233.75 217.421875 234.019531 217.394531 C 234.105469 217.394531 234.195312 217.363281 234.285156 217.363281 C 234.371094 217.332031 234.488281 217.332031 234.578125 217.304688 C 236.351562 216.921875 238.242188 216.449219 239.953125 215.5625 C 241.726562 214.675781 242.96875 213.464844 243.648438 211.988281 C 245.390625 207.910156 244.976562 204.21875 242.378906 201 C 240.488281 198.636719 237.5625 197.160156 234.371094 196.921875 C 234.019531 196.894531 233.722656 196.894531 233.398438 196.894531 C 230.5625 196.894531 227.960938 197.867188 226.011719 199.609375 C 220.074219 204.988281 218.6875 210.453125 221.316406 217.835938 C 221.375 218.042969 221.433594 218.191406 221.523438 218.367188 C 221.550781 218.457031 221.582031 218.515625 221.613281 218.605469 C 221.699219 218.839844 221.789062 219.046875 221.816406 219.253906 L 221.816406 219.285156 C 221.964844 219.816406 222.023438 220.523438 221.613281 220.96875 C 221.375 221.203125 221.019531 221.261719 220.726562 221.261719 C 220.488281 221.261719 220.195312 221.234375 219.867188 221.144531 C 219.601562 221.085938 219.308594 220.96875 218.984375 220.847656 C 218.863281 220.820312 218.777344 220.761719 218.6875 220.730469 C 218.390625 220.613281 218.066406 220.496094 217.742188 220.40625 C 215.644531 219.757812 213.753906 219.429688 211.953125 219.429688 C 207.460938 219.429688 203.679688 221.410156 200.046875 225.632812 C 196.414062 229.859375 196.652344 236.503906 200.578125 240.789062 C 202.617188 242.765625 205.21875 243.917969 207.933594 243.917969 Z M 211.980469 223.359375 C 213.371094 223.359375 214.875 223.625 216.53125 224.15625 L 217.269531 224.421875 L 217.296875 224.421875 C 217.328125 224.421875 217.359375 224.453125 217.386719 224.453125 C 217.445312 224.480469 217.503906 224.511719 217.59375 224.511719 L 217.652344 224.542969 C 218.039062 224.6875 218.449219 224.835938 218.953125 224.953125 C 219.574219 225.101562 220.195312 225.191406 220.785156 225.191406 C 222.644531 225.191406 223.855469 224.363281 224.566406 223.683594 C 225.363281 222.886719 226.542969 221.144531 225.863281 218.160156 C 225.777344 217.6875 225.597656 217.246094 225.480469 216.921875 C 225.453125 216.832031 225.421875 216.742188 225.390625 216.683594 L 225.363281 216.59375 C 225.332031 216.535156 225.332031 216.507812 225.304688 216.449219 C 225.273438 216.417969 225.273438 216.386719 225.246094 216.328125 L 225.246094 216.269531 C 223.175781 210.511719 224.179688 206.640625 228.820312 202.445312 C 229.972656 201.382812 231.59375 200.792969 233.398438 200.792969 C 233.632812 200.792969 233.839844 200.792969 234.078125 200.820312 C 236.203125 201 238.0625 201.914062 239.1875 203.390625 C 240.78125 205.429688 241.019531 207.585938 239.867188 210.214844 C 239.628906 210.777344 239.097656 211.25 238.09375 211.78125 C 236.765625 212.460938 235.199219 212.8125 233.75 213.140625 L 233.664062 213.167969 C 233.574219 213.199219 233.484375 213.199219 233.425781 213.199219 L 233.339844 213.199219 C 232.984375 213.257812 232.628906 213.316406 232.214844 213.40625 C 230.976562 213.730469 229.203125 214.351562 228.199219 216.183594 C 227.429688 217.601562 227.402344 219.222656 228.109375 221.085938 C 229.617188 225.488281 232.394531 228.734375 236.351562 230.746094 C 236.765625 230.949219 237.179688 231.15625 237.621094 231.335938 C 235.199219 232.367188 233.25 234.320312 232.15625 236.710938 C 231.949219 236.238281 231.714844 235.765625 231.476562 235.292969 C 229.46875 231.363281 226.191406 228.617188 221.730469 227.140625 C 221.167969 226.964844 220.3125 226.726562 219.367188 226.726562 C 218.511719 226.726562 217.683594 226.933594 216.972656 227.316406 C 215.613281 228.085938 214.730469 229.414062 214.285156 231.304688 L 214.226562 231.542969 C 214.195312 231.691406 214.167969 231.808594 214.136719 231.957031 C 214.078125 232.222656 213.992188 232.515625 213.960938 232.78125 C 213.785156 233.726562 213.546875 234.792969 213.164062 235.796875 C 212.453125 237.804688 210.949219 239.191406 209.027344 239.578125 C 208.671875 239.636719 208.320312 239.695312 207.996094 239.695312 C 206.429688 239.695312 204.894531 238.984375 203.679688 237.6875 C 201.171875 234.96875 200.964844 230.625 203.207031 227.96875 C 206.015625 224.808594 208.734375 223.359375 211.980469 223.359375 Z M 246.097656 245.160156 C 244.886719 246.398438 243.234375 247.136719 241.578125 247.136719 L 241.519531 247.136719 C 238.269531 247.136719 235.40625 244.273438 235.375 241.023438 C 235.375 239.308594 236.027344 237.714844 237.238281 236.503906 C 238.417969 235.292969 240.015625 234.613281 241.757812 234.585938 C 245.09375 234.613281 247.871094 237.359375 247.929688 240.699219 C 247.960938 242.324219 247.28125 243.949219 246.097656 245.160156 Z M 246.097656 245.160156 " fill-opacity="1" fill-rule="nonzero"/><g clip-path="url(#e907c1ca0e)"><path fill="#a63a3a" d="M 82.929688 295.789062 C 82.988281 295.875 83.046875 295.9375 83.105469 295.996094 C 83.136719 296.023438 83.164062 296.054688 83.164062 296.082031 C 84.492188 297.855469 86 298.769531 87.652344 298.769531 C 88.1875 298.769531 88.71875 298.683594 89.277344 298.503906 C 92.378906 297.472656 92.585938 294.488281 92.644531 293.511719 L 92.644531 293.425781 C 92.644531 293.308594 92.644531 293.277344 92.675781 293.160156 C 94.152344 284.859375 100.769531 277.917969 108.921875 276.085938 C 108.597656 282.613281 111.285156 287.988281 113.675781 292.007812 C 114.5625 293.484375 115.746094 294.753906 117.605469 296.171875 C 118.730469 297.027344 120.5 298.152344 122.746094 298.152344 C 123.042969 298.152344 123.367188 298.121094 123.660156 298.09375 L 124.664062 297.945312 L 125.40625 297.265625 C 126.851562 295.964844 127.027344 294.339844 127.117188 293.71875 L 127.148438 293.574219 C 127.472656 291.152344 128.269531 288.726562 129.570312 286.425781 C 131.695312 282.730469 134.296875 280.8125 137.75 280.367188 C 140.378906 280.042969 142.742188 279.421875 144.898438 278.476562 C 145.046875 278.949219 145.195312 279.394531 145.3125 279.867188 C 145.492188 280.457031 145.699219 281.046875 145.84375 281.640625 L 145.84375 281.667969 L 145.875 281.726562 C 147.085938 285.359375 148.917969 290 152.640625 293.808594 C 153.554688 294.753906 155.03125 296.023438 157.128906 296.023438 C 157.21875 296.023438 157.277344 296.023438 157.363281 296.023438 C 159.492188 295.9375 160.878906 294.546875 161.824219 293.335938 C 162.210938 292.863281 162.59375 292.300781 163.035156 291.625 C 163.390625 291.0625 163.773438 290.53125 164.128906 290.085938 C 166.492188 287.308594 168.648438 284.355469 170.714844 281.019531 C 173.199219 284.949219 176.417969 288.226562 180.285156 290.796875 C 182.738281 292.449219 185.957031 293.335938 189.355469 293.335938 C 193.519531 293.335938 197.359375 292.007812 199.871094 289.671875 C 205.039062 284.976562 207.019531 278.773438 205.660156 271.269531 C 207.34375 272.128906 209.085938 272.984375 210.949219 273.632812 C 213.546875 274.550781 216.148438 275.023438 218.714844 275.023438 C 221.464844 275.023438 224.242188 274.492188 226.898438 273.425781 C 228.050781 272.984375 229.171875 272.480469 230.296875 271.921875 C 229.824219 274.726562 230.355469 277.621094 231.859375 280.78125 C 232.925781 282.996094 234.460938 284.886719 236.441406 286.453125 C 239.15625 288.582031 243.410156 291.417969 248.816406 291.417969 C 249.792969 291.417969 250.765625 291.328125 251.742188 291.152344 C 257.707031 290.085938 262.640625 287.132812 266.390625 282.378906 C 269.523438 278.539062 270.96875 274.34375 270.761719 270 C 271 270 271.265625 270.03125 271.503906 270.03125 C 275.519531 270.03125 279.328125 268.671875 282.84375 265.984375 C 287.777344 262.171875 290.878906 257.0625 292.03125 250.800781 C 292.238281 249.558594 292.445312 248.140625 292.179688 246.578125 C 291.382812 242.175781 289.726562 238.601562 287.1875 235.617188 C 284.261719 232.191406 280.628906 230.183594 276.40625 229.59375 C 275.902344 229.53125 275.402344 229.472656 274.898438 229.472656 C 274.132812 229.472656 273.363281 229.5625 272.59375 229.710938 L 272.890625 229.179688 C 276.761719 222 276.761719 214.46875 272.917969 206.816406 L 272.242188 205.488281 C 272.152344 205.339844 272.09375 205.222656 272.035156 205.074219 C 273.453125 205.371094 274.871094 205.519531 276.226562 205.519531 C 279.242188 205.519531 282.164062 204.808594 284.882812 203.421875 C 289.253906 201.234375 292.445312 197.277344 293.566406 192.609375 C 294.75 187.824219 293.773438 182.773438 290.878906 178.726562 C 288.398438 175.269531 285.355469 172.375 281.78125 170.070312 C 284.292969 168.507812 286.625 166.734375 288.871094 164.992188 L 289.195312 164.753906 L 290.171875 164.015625 C 291.292969 163.128906 292.5625 162.183594 293.890625 161.238281 C 296.136719 159.703125 296.726562 157.960938 296.785156 156.75 C 296.933594 154.121094 294.925781 152.347656 294.277344 151.789062 C 291.972656 149.71875 289.726562 148.214844 287.421875 147.238281 C 285.265625 146.292969 282.371094 145.113281 279.152344 144.226562 C 280.273438 141.359375 280.835938 138.378906 281.339844 135.542969 C 281.484375 134.742188 281.871094 133.945312 282.667969 132.882812 C 285.058594 129.546875 288.488281 127.597656 293.804688 126.5625 C 293.890625 126.5625 293.953125 126.5625 294.070312 126.53125 L 294.097656 126.53125 C 294.808594 126.472656 296.3125 126.355469 297.613281 125.113281 L 298.53125 124.289062 L 298.707031 123.105469 C 299.296875 119.414062 296.964844 116.875 295.839844 115.664062 C 292 111.410156 284.175781 108.21875 277.617188 108.21875 C 277.351562 108.21875 277.085938 108.21875 276.847656 108.246094 C 278.5625 101.304688 284.46875 93.449219 293.746094 92.089844 C 293.773438 92.089844 293.832031 92.089844 293.890625 92.0625 C 293.890625 92.0625 293.921875 92.0625 293.921875 92.0625 C 294.011719 92.0625 294.070312 92.0625 294.128906 92.03125 C 294.128906 92.03125 294.15625 92.03125 294.15625 92.03125 L 294.21875 92.03125 L 294.363281 92 L 294.484375 92 C 294.925781 91.941406 295.515625 91.882812 296.136719 91.675781 C 298.382812 90.9375 299.148438 89.460938 299.414062 88.664062 C 299.683594 87.835938 299.949219 86.152344 298.675781 84.351562 C 298.144531 83.613281 297.554688 83.082031 296.992188 82.550781 C 292.386719 78.621094 287.097656 76.496094 281.25 76.257812 L 280.71875 76.257812 C 280.628906 76.257812 280.539062 76.257812 280.480469 76.257812 C 280.363281 76.257812 280.273438 76.226562 280.15625 76.226562 C 272.507812 76.226562 265.710938 79.125 259.300781 85.058594 C 255.699219 88.398438 252.746094 92.296875 250.265625 97.023438 C 247.164062 95.164062 243.648438 94.128906 239.808594 93.980469 C 239.421875 93.953125 239.007812 93.953125 238.625 93.953125 C 232.128906 93.953125 226.722656 96.078125 222.527344 100.242188 C 220.667969 102.074219 219.484375 104.054688 218.863281 106.296875 C 218.390625 107.921875 218.539062 109.429688 219.308594 110.640625 C 220.046875 111.792969 221.257812 112.5625 222.792969 112.796875 C 225.304688 113.300781 227.460938 114.777344 229.734375 117.582031 C 230.324219 118.351562 230.796875 118.96875 231.152344 119.503906 C 224.949219 120.210938 219.457031 123.3125 214.730469 128.746094 C 208.9375 135.421875 207.964844 144.078125 212.101562 151.90625 C 214.9375 157.222656 220.3125 160.53125 226.160156 160.53125 C 227.609375 160.53125 229.054688 160.324219 230.472656 159.910156 L 230.679688 159.851562 C 231.09375 159.734375 231.832031 159.527344 232.539062 159.023438 C 231.859375 160.148438 231.035156 161.269531 230.058594 162.421875 L 227.753906 164.992188 L 227.546875 165.226562 L 227.519531 165.257812 C 225.363281 167.621094 223.148438 170.042969 221.433594 172.996094 C 219.160156 176.808594 218.332031 180.5 218.921875 184.25 C 210.269531 187.617188 205.570312 196.242188 207.523438 205.339844 C 207.667969 206.019531 207.847656 206.671875 208.023438 207.289062 C 206.960938 206.996094 206.074219 206.789062 205.21875 206.640625 C 203.859375 206.40625 202.589844 206.285156 201.378906 206.285156 C 198.570312 206.285156 196.121094 206.9375 193.933594 208.234375 C 189.53125 210.804688 186.609375 214.054688 185.011719 218.160156 C 184.273438 218.042969 183.535156 217.953125 182.769531 217.953125 C 180.964844 217.953125 179.074219 218.339844 177.066406 219.105469 C 174.617188 220.023438 172.339844 221.378906 170.15625 223.269531 C 169.859375 223.535156 169.535156 223.804688 169.238281 224.070312 C 168.621094 224.601562 168 225.132812 167.410156 225.664062 C 167.261719 225.78125 167.113281 225.898438 166.996094 226.046875 C 166.699219 226.3125 166.433594 226.550781 166.109375 226.785156 L 164.957031 227.789062 C 164.1875 228.441406 163.449219 229.121094 162.652344 229.800781 L 162.179688 230.210938 C 161.351562 230.890625 160.527344 231.511719 159.640625 232.042969 C 160.054688 231.511719 160.378906 230.890625 160.585938 230.152344 C 162.238281 223.804688 161.027344 218.542969 156.980469 214.585938 C 152.933594 210.65625 148.328125 208.648438 143.335938 208.648438 C 141.355469 208.648438 139.289062 208.972656 137.21875 209.625 C 128.566406 212.371094 121.535156 220.96875 120.292969 230.210938 L 120.175781 230.125 C 116.277344 227.644531 114.328125 225.25 113.675781 222.148438 C 113.441406 220.996094 112.878906 219.34375 111.167969 218.367188 C 110.488281 217.984375 109.691406 217.777344 108.863281 217.777344 C 108.09375 217.777344 107.296875 217.925781 106.5 218.25 C 103.457031 219.285156 100.945312 221.292969 98.789062 224.363281 C 93.917969 231.453125 93.5625 242.117188 97.902344 249.382812 C 95.070312 250.890625 92.5 252.601562 90.046875 254.550781 C 85.261719 258.480469 81.894531 262.675781 79.765625 267.34375 C 75.042969 277.679688 76.132812 287.28125 82.929688 295.789062 Z M 100.886719 252.425781 C 101.035156 252.367188 101.183594 252.308594 101.359375 252.21875 L 101.390625 252.21875 C 101.949219 251.984375 102.601562 251.714844 103.042969 251.007812 L 103.160156 250.859375 L 103.160156 250.710938 C 103.28125 249.886719 102.835938 249.382812 102.542969 249.027344 L 102.484375 248.96875 L 102.453125 248.941406 C 102.394531 248.882812 102.363281 248.851562 102.304688 248.761719 L 102.246094 248.675781 C 97.699219 242.796875 97.609375 233.136719 102.039062 226.726562 C 103.695312 224.363281 105.523438 222.859375 107.710938 222.117188 C 108.152344 221.972656 108.507812 221.882812 108.773438 221.882812 C 108.890625 221.882812 109.011719 221.914062 109.070312 221.941406 C 109.246094 222.058594 109.425781 222.414062 109.542969 223.0625 C 110.488281 227.289062 113.058594 230.539062 117.84375 233.578125 L 118.050781 233.726562 C 119.378906 234.585938 121.003906 235.648438 122.953125 235.648438 C 123.011719 235.648438 123.070312 235.648438 123.101562 235.648438 L 123.425781 235.648438 L 123.601562 235.382812 C 124.105469 234.671875 124.074219 233.964844 124.046875 233.433594 L 124.046875 232.929688 C 124.164062 224.421875 130.308594 216.0625 138.34375 213.464844 C 139.996094 212.933594 141.621094 212.667969 143.214844 212.667969 C 147.144531 212.667969 150.777344 214.261719 153.96875 217.421875 C 156.890625 220.316406 157.75 224.1875 156.449219 229.03125 C 156.390625 229.265625 156.332031 229.386719 156.214844 229.472656 C 155.976562 229.445312 155.828125 229.265625 155.5625 228.882812 C 155.476562 228.765625 155.386719 228.648438 155.238281 228.5 C 153.050781 225.929688 150.214844 224.601562 146.847656 224.601562 C 146.257812 224.601562 145.636719 224.628906 144.988281 224.71875 C 141.945312 225.132812 140.085938 226.550781 139.316406 229.089844 C 138.609375 231.421875 139.847656 234.554688 142.09375 236.207031 C 143.570312 237.300781 145.226562 237.953125 147.027344 238.1875 C 148.148438 238.304688 149.242188 238.363281 150.277344 238.363281 C 155.859375 238.363281 160.554688 236.652344 164.632812 233.136719 C 165.902344 232.042969 167.171875 230.921875 168.382812 229.859375 L 168.621094 229.652344 C 169.917969 228.5 171.25 227.347656 172.605469 226.195312 C 174.320312 224.71875 176.238281 223.535156 178.308594 222.769531 C 179.875 222.179688 181.261719 221.882812 182.589844 221.882812 C 183.535156 221.882812 184.421875 222.03125 185.339844 222.324219 L 185.457031 222.355469 C 185.722656 222.445312 186.078125 222.5625 186.460938 222.5625 C 186.667969 222.5625 186.875 222.53125 187.082031 222.445312 L 187.167969 222.414062 L 187.230469 222.355469 C 187.847656 221.914062 188.027344 221.320312 188.171875 220.730469 C 188.203125 220.640625 188.234375 220.554688 188.234375 220.464844 C 188.261719 220.375 188.261719 220.316406 188.292969 220.230469 C 189.472656 216.59375 191.925781 213.757812 195.765625 211.542969 C 197.390625 210.597656 199.191406 210.15625 201.199219 210.15625 C 202.144531 210.15625 203.148438 210.246094 204.273438 210.453125 C 206.546875 210.863281 208.820312 211.632812 211.300781 212.785156 C 211.421875 212.84375 211.566406 212.902344 211.6875 212.992188 C 212.160156 213.257812 212.691406 213.554688 213.398438 213.554688 C 213.429688 213.554688 213.488281 213.554688 213.488281 213.554688 L 213.929688 213.554688 L 214.109375 213.285156 C 214.730469 212.429688 214.257812 211.691406 213.992188 211.277344 C 213.960938 211.25 213.929688 211.191406 213.929688 211.160156 C 213.902344 211.101562 213.871094 211.070312 213.84375 211.011719 C 212.660156 208.53125 211.894531 206.375 211.449219 204.25 C 209.882812 196.980469 213.546875 190.335938 220.605469 187.707031 C 220.726562 187.648438 220.871094 187.617188 220.992188 187.589844 C 221.109375 187.558594 221.226562 187.53125 221.316406 187.5 C 221.90625 187.351562 222.527344 187.175781 223.058594 186.703125 L 223.117188 186.644531 L 223.175781 186.554688 C 223.441406 186.082031 223.472656 185.609375 223.296875 185.105469 C 222.230469 181.800781 222.734375 178.429688 224.859375 174.828125 C 226.425781 172.199219 228.523438 169.894531 230.5625 167.648438 L 230.855469 167.324219 C 231.59375 166.527344 232.394531 165.671875 233.101562 164.84375 C 235.613281 161.917969 237.207031 159.144531 238.125 156.160156 C 239.128906 152.910156 239.363281 149.453125 238.832031 145.878906 C 238.359375 142.691406 236.882812 140.445312 234.371094 139.144531 C 233.277344 138.585938 232.214844 138.289062 231.183594 138.289062 C 230.53125 138.289062 229.941406 138.40625 229.351562 138.613281 C 227.816406 139.175781 226.601562 140.503906 225.925781 142.304688 C 224.445312 146.085938 225.6875 151.109375 228.789062 153.914062 C 228.996094 154.121094 229.230469 154.296875 229.410156 154.386719 C 229.792969 154.652344 230.117188 154.890625 230.238281 155.273438 C 230.148438 155.421875 229.972656 155.480469 229.585938 155.570312 L 229.5 155.597656 C 229.46875 155.597656 229.4375 155.597656 229.4375 155.628906 C 229.378906 155.628906 229.320312 155.65625 229.292969 155.65625 C 228.199219 155.953125 227.105469 156.128906 226.011719 156.128906 C 221.640625 156.128906 217.769531 153.707031 215.644531 149.660156 C 212.277344 143.308594 213.046875 136.515625 217.742188 131.082031 C 222.410156 125.675781 227.695312 123.078125 233.871094 123.078125 C 234.078125 123.078125 234.285156 123.078125 234.488281 123.078125 C 234.695312 123.078125 234.902344 123.046875 235.109375 123.046875 L 235.347656 123.015625 C 235.433594 123.015625 235.523438 122.988281 235.671875 122.988281 C 235.789062 122.988281 235.90625 122.988281 236.054688 122.957031 L 236.675781 122.871094 L 236.585938 122.21875 C 235.96875 118.851562 234.253906 116.371094 232.867188 114.628906 C 229.910156 111.023438 227.015625 109.105469 223.53125 108.425781 C 223.089844 108.335938 222.824219 108.21875 222.703125 108.070312 C 222.644531 107.980469 222.585938 107.714844 222.792969 106.976562 C 223.148438 105.5 224.003906 104.113281 225.332031 102.8125 C 228.789062 99.386719 233.101562 97.703125 238.507812 97.703125 C 238.863281 97.703125 239.214844 97.703125 239.570312 97.730469 C 243.824219 97.910156 247.546875 99.355469 250.648438 102.074219 L 250.675781 102.105469 L 250.972656 102.28125 L 251.238281 102.191406 C 252.390625 101.867188 252.714844 100.953125 252.980469 100.300781 C 253.039062 100.15625 253.097656 100.007812 253.160156 99.886719 L 253.1875 99.859375 C 255.640625 94.898438 258.535156 90.910156 262.050781 87.628906 C 267.660156 82.429688 273.597656 79.890625 280.128906 79.890625 C 280.453125 79.890625 280.777344 79.890625 281.101562 79.921875 C 285.917969 80.15625 290.378906 81.929688 294.277344 85.265625 C 294.660156 85.621094 295.015625 85.917969 295.308594 86.300781 C 295.488281 86.566406 295.574219 86.804688 295.515625 86.949219 C 295.488281 87.070312 295.308594 87.214844 294.984375 87.304688 C 294.628906 87.394531 294.277344 87.453125 293.832031 87.484375 L 293.773438 87.484375 C 293.683594 87.484375 293.625 87.511719 293.539062 87.511719 C 293.449219 87.511719 293.332031 87.542969 293.242188 87.542969 C 281.101562 89.3125 273.453125 100.332031 272.386719 109.84375 L 272.359375 109.960938 L 272.359375 109.992188 C 272.300781 110.492188 272.210938 111.203125 272.773438 111.882812 L 272.832031 111.941406 L 272.980469 112 C 273.304688 112.175781 273.660156 112.234375 273.984375 112.234375 C 274.277344 112.234375 274.542969 112.175781 274.808594 112.117188 C 274.898438 112.089844 274.957031 112.089844 275.046875 112.058594 L 275.105469 112.058594 C 275.253906 112 275.402344 111.96875 275.578125 111.96875 C 276.226562 111.851562 276.90625 111.820312 277.675781 111.820312 C 283.050781 111.820312 289.875 114.570312 292.886719 117.9375 C 294.011719 119.148438 294.894531 120.269531 294.777344 121.746094 C 294.511719 121.925781 294.246094 121.953125 293.804688 121.953125 C 293.597656 121.953125 293.359375 121.984375 293.125 122.011719 C 286.742188 123.28125 282.371094 125.824219 279.359375 130.019531 C 278.589844 131.082031 277.644531 132.558594 277.320312 134.417969 C 276.671875 138.347656 275.992188 141.890625 273.984375 145.082031 L 273.953125 145.113281 L 273.953125 145.140625 C 273.863281 145.347656 273.863281 145.554688 273.894531 145.761719 L 273.894531 146.027344 L 274.011719 146.144531 C 274.398438 146.796875 275.015625 146.945312 275.429688 147.03125 L 275.460938 147.03125 L 275.546875 147.0625 L 275.578125 147.0625 C 278.679688 147.710938 281.957031 148.832031 285.886719 150.578125 C 287.835938 151.402344 289.636719 152.613281 291.617188 154.417969 C 292.414062 155.125 292.800781 155.714844 292.769531 156.128906 C 292.738281 156.542969 292.386719 156.957031 291.589844 157.546875 C 289.90625 158.757812 288.222656 160.027344 286.949219 161.003906 L 286.890625 161.035156 C 283.582031 163.574219 280.1875 166.171875 276.40625 168.0625 C 276.347656 168.09375 276.289062 168.121094 276.226562 168.183594 C 275.753906 168.386719 275.136719 168.714844 274.898438 169.570312 L 274.808594 169.867188 L 274.988281 170.132812 L 275.015625 170.160156 C 275.726562 170.988281 276.699219 171.488281 277.558594 171.933594 C 277.703125 172.023438 277.824219 172.082031 277.972656 172.140625 C 278.089844 172.199219 278.238281 172.257812 278.355469 172.347656 C 282.105469 174.53125 285.148438 177.28125 287.660156 180.734375 C 289.84375 183.808594 290.613281 187.648438 289.726562 191.25 C 288.839844 194.796875 286.449219 197.75 283.199219 199.375 C 281.011719 200.4375 278.679688 201 276.289062 201 C 275.164062 201 274.011719 200.878906 272.832031 200.644531 C 271.769531 200.4375 270.941406 199.996094 270.320312 199.316406 C 270.585938 199.078125 270.882812 198.992188 271.234375 198.871094 C 271.414062 198.8125 271.621094 198.753906 271.828125 198.636719 C 271.945312 198.578125 272.09375 198.519531 272.242188 198.457031 C 272.359375 198.398438 272.476562 198.371094 272.566406 198.3125 L 272.683594 198.25 C 273.746094 197.808594 274.871094 197.367188 275.875 196.628906 C 278.238281 194.914062 278.648438 192.699219 277.144531 190.21875 C 275.488281 187.558594 272.917969 186.230469 269.050781 185.964844 C 268.960938 185.964844 268.871094 185.964844 268.8125 185.964844 C 267.21875 185.964844 266.214844 187.117188 265.535156 188.148438 C 264.265625 190.097656 263.851562 192.433594 264.324219 195.238281 C 264.738281 197.777344 265.566406 200.320312 266.863281 203.039062 C 267.25 203.804688 267.632812 204.574219 268.015625 205.339844 C 268.195312 205.726562 268.402344 206.109375 268.578125 206.492188 C 268.871094 207.054688 269.167969 207.644531 269.433594 208.207031 C 272.683594 214.644531 272.683594 220.730469 269.433594 226.816406 C 269.167969 227.347656 268.871094 227.878906 268.578125 228.382812 C 268.371094 228.765625 268.164062 229.148438 267.957031 229.503906 C 267.457031 230.390625 266.953125 231.304688 266.449219 232.222656 C 263.554688 237.480469 263.46875 243.152344 266.214844 249.085938 C 267.21875 251.242188 269.316406 251.777344 271.03125 251.980469 C 271.148438 251.980469 271.234375 252.011719 271.324219 252.011719 C 272.476562 252.011719 273.480469 251.304688 274.277344 249.855469 C 275.726562 247.34375 275.195312 243.5625 273.125 241.4375 C 271.828125 240.109375 270.230469 239.222656 268.28125 238.71875 C 268.132812 238.691406 267.957031 238.660156 267.75 238.632812 C 267.21875 238.542969 266.894531 238.484375 266.65625 238.160156 C 266.570312 237.953125 266.628906 237.863281 266.65625 237.804688 C 268.105469 235.175781 271.769531 233.136719 274.988281 233.136719 C 275.3125 233.136719 275.667969 233.167969 275.960938 233.195312 C 279.183594 233.640625 281.871094 235.144531 284.175781 237.832031 C 286.242188 240.253906 287.570312 243.210938 288.28125 246.84375 C 288.457031 247.816406 288.308594 248.792969 288.160156 249.589844 C 287.15625 254.878906 284.558594 259.128906 280.453125 262.261719 C 277.734375 264.386719 274.722656 265.453125 271.5625 265.453125 C 270.617188 265.453125 269.613281 265.363281 268.636719 265.15625 C 268.371094 265.097656 268.132812 265.066406 267.898438 265.039062 L 267.839844 265.039062 C 267.78125 265.007812 267.691406 265.007812 267.632812 265.007812 C 267.574219 265.007812 267.542969 265.007812 267.484375 264.980469 L 267.425781 264.980469 C 267.308594 264.980469 267.1875 265.007812 267.101562 265.039062 L 266.984375 265.066406 L 266.835938 265.128906 L 266.804688 265.15625 C 266.125 265.746094 266.332031 266.515625 266.421875 266.839844 C 266.421875 266.871094 266.421875 266.929688 266.449219 266.957031 L 266.449219 267.046875 C 267.515625 271.390625 266.511719 275.4375 263.378906 279.421875 C 260.277344 283.382812 256.199219 285.832031 251.238281 286.75 C 250.53125 286.867188 249.792969 286.957031 249.082031 286.957031 C 245.863281 286.957031 242.730469 285.65625 239.214844 282.851562 C 237.710938 281.667969 236.558594 280.222656 235.820312 278.625 C 233.515625 273.753906 234.105469 270.296875 237.859375 266.308594 C 238.417969 265.71875 238.863281 265.363281 239.394531 265.304688 C 239.71875 265.480469 239.808594 265.746094 239.894531 266.308594 L 239.894531 266.367188 L 239.984375 266.722656 C 240.308594 268.257812 240.960938 269.617188 241.933594 270.917969 C 243.382812 272.835938 245.300781 273.8125 247.605469 273.8125 C 248.136719 273.8125 248.699219 273.753906 249.257812 273.664062 C 252.09375 273.191406 252.980469 271.714844 253.21875 270.5625 C 253.601562 268.671875 252.921875 266.839844 251.296875 265.480469 C 250.675781 264.949219 249.820312 264.476562 248.875 264.152344 C 246.363281 263.324219 243.972656 262.910156 241.757812 262.910156 C 238.359375 262.910156 235.347656 263.828125 232.480469 265.746094 C 230.5625 267.015625 228.316406 268.167969 225.65625 269.261719 C 223.472656 270.117188 221.199219 270.5625 218.984375 270.5625 C 216.886719 270.5625 214.730469 270.179688 212.632812 269.410156 C 210.445312 268.613281 208.320312 267.550781 206.28125 266.515625 L 205.570312 266.160156 C 202.46875 264.566406 199.8125 263.621094 197.210938 263.175781 C 196.179688 263 195.320312 262.910156 194.464844 262.910156 C 192.753906 262.910156 191.246094 263.265625 189.886719 264.035156 C 187.9375 265.128906 187.109375 266.722656 187.40625 268.789062 C 187.847656 271.804688 188.914062 273.898438 190.804688 275.347656 C 191.984375 276.261719 193.136719 276.734375 194.257812 276.734375 C 194.496094 276.734375 194.703125 276.707031 194.9375 276.675781 C 196.238281 276.441406 197.390625 275.582031 198.304688 274.078125 C 198.835938 273.160156 199.28125 272.15625 199.636719 271.269531 L 199.902344 270.679688 C 199.988281 270.472656 200.078125 270.265625 200.136719 270.117188 L 200.167969 270.058594 C 200.285156 269.734375 200.402344 269.410156 200.609375 269.113281 C 201.257812 269.617188 201.671875 270.355469 201.878906 271.332031 C 203.0625 277.5625 201.585938 282.4375 197.390625 286.277344 C 195.648438 287.871094 192.753906 288.816406 189.652344 288.816406 C 187.050781 288.816406 184.601562 288.167969 182.828125 286.984375 C 179.136719 284.535156 176.152344 281.375 173.90625 277.5625 C 173.316406 276.589844 172.753906 275.582031 172.195312 274.636719 L 172.046875 274.371094 L 171.601562 273.605469 L 171.25 273.605469 C 170.097656 273.605469 169.742188 274.402344 169.566406 274.757812 L 169.566406 274.816406 C 169.535156 274.875 169.535156 274.90625 169.503906 274.964844 L 169.476562 274.992188 C 167.023438 279.453125 164.335938 283.382812 161.265625 287.015625 C 160.734375 287.636719 160.289062 288.285156 159.875 288.90625 C 159.550781 289.40625 159.195312 289.910156 158.84375 290.382812 C 158.25 291.121094 157.777344 291.503906 157.363281 291.535156 L 157.335938 291.535156 C 156.953125 291.535156 156.417969 291.210938 155.769531 290.558594 C 152.640625 287.339844 151.015625 283.234375 149.949219 280.042969 C 149.449219 278.476562 148.945312 276.824219 148.445312 275.109375 L 148.414062 275.050781 C 148.238281 274.492188 148.058594 273.898438 147.882812 273.339844 L 147.792969 273.042969 L 147.527344 272.953125 C 147.261719 272.835938 146.96875 272.777344 146.703125 272.777344 C 146.230469 272.777344 145.875 272.953125 145.550781 273.132812 C 143.214844 274.550781 140.527344 275.40625 137.367188 275.820312 C 132.640625 276.410156 128.980469 279.039062 126.144531 283.882812 C 124.546875 286.601562 123.574219 289.527344 123.160156 292.539062 L 123.160156 292.597656 C 123.160156 292.597656 123.160156 292.628906 123.160156 292.628906 C 123.160156 292.6875 123.128906 292.746094 123.128906 292.804688 C 123.101562 293.160156 123.070312 293.394531 122.921875 293.601562 C 122.863281 293.601562 122.804688 293.601562 122.746094 293.601562 C 121.742188 293.601562 120.886719 293.039062 120.085938 292.449219 C 118.757812 291.476562 117.871094 290.53125 117.25 289.496094 C 112.644531 281.726562 112.734375 276.914062 113.351562 273.605469 L 113.351562 273.515625 C 113.441406 273.042969 113.589844 272.363281 113 271.65625 L 112.878906 271.535156 L 112.820312 271.507812 C 112.40625 271.300781 111.933594 271.210938 111.375 271.210938 C 110.871094 271.210938 110.371094 271.300781 109.898438 271.359375 L 109.777344 271.390625 L 109.453125 271.449219 C 99.113281 273.191406 90.636719 281.667969 88.777344 292.035156 C 88.71875 292.332031 88.71875 292.597656 88.71875 292.863281 C 88.6875 293.691406 88.628906 294.015625 88.1875 294.164062 C 88.066406 294.191406 87.980469 294.222656 87.859375 294.222656 C 87.386719 294.222656 87.035156 293.75 86.621094 293.1875 C 86.5625 293.128906 86.355469 292.863281 86.296875 292.773438 C 80.417969 285.921875 79.472656 277.945312 83.488281 269.054688 C 85.320312 264.949219 88.304688 261.257812 92.585938 257.710938 C 94.921875 255.824219 97.667969 254.050781 100.886719 252.425781 Z M 147.558594 234.140625 C 146.523438 234.023438 145.519531 233.609375 144.574219 232.929688 C 143.601562 232.191406 143.128906 230.832031 143.273438 230.300781 C 143.453125 229.769531 143.6875 229.03125 145.550781 228.824219 C 145.992188 228.765625 146.4375 228.734375 146.878906 228.734375 C 149.035156 228.734375 150.71875 229.503906 152.167969 231.1875 C 152.195312 231.21875 152.226562 231.246094 152.253906 231.277344 L 152.285156 231.304688 C 153.257812 232.664062 154.46875 233.402344 155.886719 233.550781 C 154.175781 234.082031 152.375 234.320312 150.394531 234.320312 C 149.476562 234.320312 148.53125 234.257812 147.558594 234.140625 Z M 231.800781 151.285156 C 231.742188 151.226562 231.65625 151.195312 231.59375 151.167969 C 231.59375 151.167969 231.566406 151.167969 231.566406 151.136719 C 231.535156 151.136719 231.535156 151.109375 231.507812 151.109375 C 229.675781 149.367188 228.878906 146.234375 229.734375 143.988281 C 229.851562 143.664062 230.207031 142.867188 230.769531 142.632812 C 230.886719 142.601562 231.035156 142.570312 231.183594 142.570312 C 231.773438 142.570312 232.363281 142.898438 232.480469 142.957031 C 233.425781 143.488281 234.460938 144.316406 234.816406 146.648438 C 235.230469 149.542969 235.050781 152.203125 234.3125 154.800781 C 233.871094 152.878906 232.6875 151.875 231.800781 151.285156 Z M 268.429688 243.5625 C 269.109375 243.859375 269.671875 244.242188 270.171875 244.714844 C 270.96875 245.542969 271.234375 247.285156 270.703125 248.261719 C 269.964844 248.113281 269.90625 247.9375 269.878906 247.847656 L 269.878906 247.816406 C 269.140625 246.3125 268.667969 244.894531 268.429688 243.5625 Z M 270.203125 195.296875 C 270.113281 195.328125 270.023438 195.355469 269.964844 195.386719 C 269.523438 195.503906 268.992188 195.683594 268.429688 196.007812 C 268.371094 195.710938 268.3125 195.386719 268.253906 195.0625 C 267.957031 193.289062 268.132812 191.988281 268.871094 190.867188 C 268.933594 190.75 268.992188 190.660156 269.050781 190.601562 C 271.355469 190.808594 272.714844 191.515625 273.570312 192.90625 C 273.6875 193.113281 273.863281 193.347656 273.863281 193.40625 C 273.835938 193.496094 273.511719 193.734375 273.390625 193.820312 C 272.683594 194.351562 271.707031 194.738281 270.941406 195.003906 Z M 244.328125 267.726562 C 245.273438 267.875 246.277344 268.140625 247.429688 268.523438 C 247.902344 268.703125 248.253906 268.878906 248.492188 269.054688 C 248.847656 269.410156 249.050781 269.675781 249.082031 269.941406 C 248.964844 270 248.726562 270.058594 248.433594 270.117188 C 248.109375 270.179688 247.8125 270.207031 247.515625 270.207031 C 246.511719 270.207031 245.746094 269.824219 245.035156 268.9375 C 244.769531 268.554688 244.535156 268.167969 244.328125 267.726562 Z M 196.355469 267.578125 C 196.503906 267.609375 196.652344 267.667969 196.800781 267.695312 C 196.535156 268.140625 196.386719 268.554688 196.238281 268.90625 L 196.207031 268.96875 L 196.148438 269.054688 C 196.121094 269.113281 196.089844 269.203125 196.0625 269.292969 C 196.03125 269.351562 196.03125 269.410156 196 269.46875 C 195.882812 269.734375 195.765625 270.03125 195.675781 270.265625 C 195.382812 270.976562 195.054688 271.742188 194.671875 272.363281 C 194.40625 272.808594 194.199219 272.984375 194.109375 273.042969 C 193.964844 273.015625 193.667969 272.894531 193.253906 272.542969 C 192.21875 271.714844 191.628906 270.503906 191.335938 268.554688 C 191.304688 268.464844 191.304688 268.347656 191.304688 268.289062 C 191.304688 268.289062 191.363281 268.199219 191.746094 267.992188 C 192.515625 267.578125 193.34375 267.402344 194.375 267.402344 C 194.96875 267.371094 195.617188 267.429688 196.355469 267.578125 Z M 196.355469 267.578125 " fill-opacity="1" fill-rule="nonzero"/></g><path fill="#a63a3a" d="M 163.835938 251.6875 L 164.128906 251.6875 C 165.046875 251.804688 167.410156 251.835938 169.269531 251.835938 C 174.585938 251.835938 184.835938 251.570312 186.253906 251.097656 L 186.902344 250.917969 L 186.609375 250.238281 C 185.042969 247.136719 184.128906 243.503906 183.800781 239.132812 L 183.800781 238.660156 L 183.328125 238.570312 C 183.035156 238.511719 182.796875 238.511719 182.621094 238.511719 C 182.058594 238.511719 181.703125 238.691406 181.4375 238.867188 L 181.351562 238.925781 C 180.109375 239.695312 178.808594 240.523438 177.511719 241.320312 L 177.363281 241.40625 C 172.871094 244.214844 168.207031 247.109375 163.773438 250.210938 L 163.6875 250.296875 C 163.449219 250.535156 163.449219 250.949219 163.449219 250.949219 C 163.449219 251.125 163.507812 251.332031 163.628906 251.480469 Z M 180.40625 244.332031 C 180.613281 245.367188 180.878906 246.398438 181.171875 247.492188 C 179.609375 247.582031 177.511719 247.640625 175 247.699219 C 176.179688 246.960938 177.363281 246.222656 178.515625 245.484375 L 179.222656 245.039062 Z M 180.40625 244.332031 " fill-opacity="1" fill-rule="nonzero"/><path fill="#000000" d="M 85.675781 293.632812 C 86.324219 294.429688 86.945312 295.609375 88.214844 295.199219 C 89.398438 294.8125 89.070312 293.511719 89.25 292.597656 C 91.050781 282.40625 99.261719 274.195312 109.425781 272.480469 C 110.457031 272.304688 111.519531 272.039062 112.4375 272.480469 C 112.878906 273.042969 112.734375 273.488281 112.644531 273.929688 C 111.550781 279.957031 113.617188 285.242188 116.632812 290.265625 C 117.371094 291.535156 118.464844 292.539062 119.644531 293.394531 C 120.679688 294.164062 121.800781 294.8125 123.128906 294.636719 C 123.660156 294.164062 123.632812 293.601562 123.691406 293.070312 C 124.074219 290.058594 125.078125 287.25 126.585938 284.652344 C 129.007812 280.488281 132.347656 277.503906 137.339844 276.882812 C 140.320312 276.5 143.1875 275.703125 145.785156 274.105469 C 146.171875 273.871094 146.582031 273.664062 147.203125 273.960938 C 147.855469 276.117188 148.503906 278.390625 149.242188 280.636719 C 150.542969 284.59375 152.226562 288.34375 155.179688 291.386719 C 156.746094 292.980469 157.75 292.953125 159.136719 291.179688 C 159.992188 290.085938 160.644531 288.875 161.558594 287.8125 C 164.75 284.0625 167.46875 280.015625 169.859375 275.703125 C 170.097656 275.257812 170.183594 274.636719 171.101562 274.636719 C 171.78125 275.789062 172.488281 277.0625 173.226562 278.300781 C 175.5 282.199219 178.542969 285.390625 182.324219 287.902344 C 186.667969 290.765625 194.050781 290.441406 197.65625 287.132812 C 202.265625 282.910156 203.445312 277.59375 202.324219 271.625 C 202.085938 270.414062 201.523438 269.378906 200.34375 268.703125 C 199.664062 269.378906 199.515625 270.148438 199.222656 270.828125 C 198.75 271.949219 198.304688 273.101562 197.683594 274.164062 C 196.03125 276.882812 193.636719 277.265625 191.097656 275.257812 C 189.117188 273.691406 188.261719 271.507812 187.90625 269.085938 C 187.613281 267.164062 188.410156 265.867188 190.09375 264.949219 C 192.308594 263.738281 194.644531 263.738281 197.035156 264.183594 C 199.929688 264.714844 202.617188 265.777344 205.21875 267.105469 C 207.523438 268.289062 209.824219 269.527344 212.308594 270.386719 C 216.824219 271.980469 221.34375 271.980469 225.777344 270.238281 C 228.199219 269.292969 230.53125 268.109375 232.71875 266.664062 C 237.738281 263.324219 243.085938 263.355469 248.578125 265.15625 C 249.378906 265.421875 250.175781 265.835938 250.796875 266.367188 C 252.152344 267.519531 252.863281 269.144531 252.507812 270.859375 C 252.152344 272.542969 250.617188 273.21875 249.050781 273.488281 C 246.363281 273.960938 244.03125 273.21875 242.316406 270.976562 C 241.433594 269.792969 240.839844 268.496094 240.488281 267.046875 C 240.308594 266.339844 240.339844 265.480469 239.394531 265.128906 C 238.476562 265.097656 237.859375 265.71875 237.296875 266.339844 C 233.574219 270.265625 232.628906 274.078125 235.140625 279.335938 C 235.96875 281.078125 237.207031 282.585938 238.714844 283.765625 C 242.378906 286.660156 246.394531 288.640625 251.210938 287.78125 C 256.289062 286.867188 260.542969 284.328125 263.734375 280.25 C 266.714844 276.46875 268.105469 272.214844 266.921875 267.34375 C 266.804688 266.898438 266.628906 266.457031 267.070312 266.074219 C 267.160156 266.042969 267.21875 266.011719 267.308594 266.011719 C 267.691406 266.074219 268.074219 266.101562 268.429688 266.191406 C 273.007812 267.136719 277.113281 265.984375 280.746094 263.175781 C 285.058594 259.871094 287.660156 255.46875 288.664062 250.121094 C 288.839844 249.148438 288.988281 248.171875 288.78125 247.167969 C 288.132812 243.710938 286.863281 240.550781 284.558594 237.863281 C 282.285156 235.203125 279.476562 233.492188 275.960938 233.019531 C 272.359375 232.515625 267.78125 234.761719 266.007812 237.921875 C 265.859375 238.1875 265.859375 238.511719 266.007812 238.835938 C 266.480469 239.546875 267.277344 239.515625 268.015625 239.695312 C 269.757812 240.136719 271.324219 240.933594 272.566406 242.234375 C 274.457031 244.183594 274.929688 247.667969 273.628906 249.914062 C 273.039062 250.949219 272.210938 251.894531 270.941406 251.746094 C 269.167969 251.539062 267.425781 251.039062 266.597656 249.207031 C 264.058594 243.742188 263.882812 238.246094 266.835938 232.902344 C 267.839844 231.097656 268.84375 229.296875 269.816406 227.464844 C 273.246094 221.054688 273.039062 214.703125 269.816406 208.296875 C 268.960938 206.582031 268.074219 204.867188 267.25 203.15625 C 266.097656 200.734375 265.179688 198.191406 264.765625 195.535156 C 264.382812 193.199219 264.558594 190.957031 265.890625 188.886719 C 266.570312 187.824219 267.457031 186.910156 268.84375 186.996094 C 271.945312 187.203125 274.722656 188.121094 276.464844 190.957031 C 277.824219 193.140625 277.46875 194.972656 275.371094 196.539062 C 274.191406 197.394531 272.800781 197.898438 271.441406 198.457031 C 270.761719 198.753906 269.9375 198.753906 269.40625 199.667969 C 270.203125 200.703125 271.296875 201.292969 272.59375 201.589844 C 276.316406 202.359375 279.949219 201.972656 283.347656 200.261719 C 290.671875 196.628906 292.886719 187.351562 288.074219 180.707031 C 285.53125 177.160156 282.371094 174.324219 278.589844 172.140625 C 277.5 171.519531 276.257812 171.046875 275.429688 170.070312 C 275.636719 169.363281 276.167969 169.1875 276.640625 168.949219 C 282.253906 166.171875 286.863281 161.917969 291.914062 158.34375 C 293.832031 156.988281 293.804688 155.894531 292 154.269531 C 290.230469 152.675781 288.308594 151.285156 286.09375 150.339844 C 282.726562 148.894531 279.269531 147.59375 275.667969 146.796875 C 275.222656 146.707031 274.75 146.648438 274.484375 146.144531 C 274.484375 146.027344 274.425781 145.851562 274.484375 145.734375 C 276.554688 142.394531 277.292969 138.644531 277.910156 134.863281 C 278.175781 133.296875 278.917969 131.996094 279.832031 130.726562 C 283.109375 126.148438 287.867188 124.050781 293.210938 122.988281 C 293.863281 122.839844 294.601562 123.015625 295.28125 122.425781 C 295.574219 120.535156 294.453125 119.175781 293.273438 117.878906 C 289.609375 113.773438 280.984375 110.847656 275.460938 111.761719 C 274.722656 111.882812 273.984375 112.265625 273.246094 111.851562 C 272.832031 111.378906 272.917969 110.816406 272.980469 110.285156 C 274.042969 100.480469 281.929688 90.171875 293.300781 88.515625 C 293.921875 88.425781 294.542969 88.398438 295.101562 88.222656 C 296.136719 87.894531 296.375 87.1875 295.753906 86.269531 C 295.457031 85.828125 295.042969 85.472656 294.628906 85.121094 C 290.703125 81.78125 286.210938 79.863281 281.042969 79.683594 C 273.390625 79.390625 267.042969 82.492188 261.546875 87.570312 C 257.738281 91.117188 254.84375 95.308594 252.566406 99.976562 C 252.214844 100.6875 252.125 101.632812 251.03125 101.984375 C 247.8125 99.121094 243.914062 97.613281 239.570312 97.464844 C 233.988281 97.257812 228.9375 98.675781 224.859375 102.722656 C 223.589844 103.996094 222.585938 105.441406 222.144531 107.183594 C 221.789062 108.574219 221.996094 109.105469 223.355469 109.371094 C 227.222656 110.109375 229.972656 112.472656 232.332031 115.367188 C 234.015625 117.433594 235.40625 119.707031 235.9375 122.691406 C 235.199219 122.75 234.816406 122.839844 234.460938 122.808594 C 227.3125 122.605469 221.757812 125.792969 217.238281 131.023438 C 212.335938 136.695312 211.597656 143.722656 215.054688 150.28125 C 217.890625 155.628906 223.707031 158.199219 229.4375 156.574219 C 230 156.425781 230.679688 156.367188 230.886719 155.628906 C 230.710938 154.683594 229.851562 154.359375 229.230469 153.796875 C 226.308594 151.136719 225.125 146.441406 226.515625 142.835938 C 227.816406 139.410156 230.886719 138.257812 234.136719 139.972656 C 236.675781 141.300781 237.886719 143.574219 238.269531 146.234375 C 238.742188 149.601562 238.566406 152.941406 237.5625 156.25 C 236.585938 159.46875 234.875 162.183594 232.660156 164.726562 C 229.792969 168.003906 226.601562 171.015625 224.328125 174.796875 C 222.320312 178.164062 221.433594 181.710938 222.703125 185.578125 C 222.792969 185.875 222.824219 186.171875 222.644531 186.523438 C 222.023438 187.058594 221.167969 187.117188 220.371094 187.410156 C 213.074219 190.097656 209.207031 197.070312 210.828125 204.632812 C 211.363281 207.054688 212.246094 209.328125 213.28125 211.542969 C 213.519531 212.046875 214.050781 212.546875 213.578125 213.199219 C 212.808594 213.226562 212.246094 212.753906 211.628906 212.460938 C 209.324219 211.367188 206.960938 210.539062 204.449219 210.066406 C 201.347656 209.507812 198.304688 209.59375 195.527344 211.25 C 191.925781 213.347656 189.117188 216.210938 187.789062 220.289062 C 187.582031 220.9375 187.554688 221.675781 186.902344 222.089844 C 186.402344 222.265625 185.957031 222.089844 185.542969 221.941406 C 183.003906 221.113281 180.554688 221.46875 178.128906 222.386719 C 175.945312 223.210938 174.023438 224.421875 172.253906 225.929688 C 169.566406 228.234375 166.9375 230.566406 164.277344 232.871094 C 159.316406 237.125 153.496094 238.453125 147.117188 237.746094 C 145.402344 237.566406 143.867188 236.917969 142.476562 235.882812 C 140.441406 234.40625 139.289062 231.542969 139.90625 229.414062 C 140.675781 226.875 142.65625 225.8125 145.078125 225.488281 C 148.886719 224.984375 152.195312 226.046875 154.765625 229.0625 C 155.179688 229.5625 155.503906 230.273438 156.332031 230.242188 C 156.746094 230.066406 156.890625 229.710938 157.011719 229.328125 C 158.191406 224.808594 157.777344 220.496094 154.351562 217.15625 C 149.804688 212.726562 144.308594 211.070312 138.105469 213.050781 C 129.777344 215.679688 123.484375 224.335938 123.367188 233.078125 C 123.367188 233.757812 123.574219 234.464844 123.042969 235.175781 C 121.121094 235.234375 119.585938 234.171875 118.078125 233.195312 C 114.269531 230.746094 111.078125 227.730469 110.042969 223.035156 C 109.691406 221.378906 109.039062 221.085938 107.386719 221.644531 C 104.816406 222.53125 102.925781 224.273438 101.417969 226.460938 C 96.871094 233.046875 96.898438 243.03125 101.625 249.148438 C 101.980469 249.621094 102.542969 250.003906 102.394531 250.742188 C 101.949219 251.449219 101.152344 251.597656 100.503906 251.953125 C 97.492188 253.488281 94.625 255.261719 91.996094 257.386719 C 88.097656 260.578125 84.789062 264.300781 82.722656 268.9375 C 78.882812 277.621094 79.53125 285.980469 85.675781 293.632812 Z M 222.230469 190.097656 C 223.414062 189.449219 224.800781 189.125 225.777344 188.269531 C 226.042969 187.707031 225.984375 187.234375 225.894531 186.789062 C 225.125 182.832031 226.308594 179.347656 228.464844 176.128906 C 231.386719 171.816406 234.992188 168.035156 238.183594 163.898438 C 241.046875 160.175781 243.085938 156.160156 243.734375 151.460938 C 244.59375 145.320312 242.171875 140.328125 237 136.929688 C 234.195312 135.070312 230.175781 135.570312 227.34375 137.933594 C 225.039062 139.882812 223.589844 142.363281 222.96875 145.320312 C 222.734375 146.441406 222.585938 147.59375 222.410156 148.714844 C 222.289062 149.574219 222.113281 150.488281 221.167969 150.753906 C 220.074219 151.019531 219.515625 150.132812 219.042969 149.335938 C 217.476562 146.765625 216.765625 143.988281 217.121094 140.976562 C 217.832031 134.863281 221.257812 130.699219 226.75 128.214844 C 231.773438 125.972656 236.972656 125.851562 242.230469 127.535156 C 242.847656 127.742188 243.441406 128.246094 244.414062 127.773438 C 244.296875 122.664062 242.378906 118.351562 238.863281 114.480469 C 235.464844 110.757812 231.566406 108.042969 226.664062 106.503906 C 227.164062 104.851562 228.375 104.320312 229.5 103.757812 C 233.425781 101.808594 237.589844 101.601562 241.816406 102.488281 C 245.007812 103.167969 247.929688 104.4375 250.589844 106.359375 C 251.210938 106.800781 251.742188 107.390625 252.539062 107.570312 C 253.542969 107.273438 253.691406 106.238281 254.191406 105.5 C 259.125 98.234375 264.707031 91.558594 272.507812 87.128906 C 276.40625 84.914062 280.570312 83.847656 285.058594 84.175781 C 286.269531 84.261719 287.511719 84.320312 288.28125 85.414062 C 288.160156 86.332031 287.480469 86.359375 286.921875 86.507812 C 285.296875 86.921875 283.640625 87.304688 282.105469 87.984375 C 277.292969 90.082031 273.71875 93.566406 271.148438 98.085938 C 267.425781 104.675781 265.652344 111.851562 264.796875 119.296875 C 264.765625 119.589844 264.886719 119.886719 264.914062 120.121094 C 265.625 120.476562 266.039062 120.035156 266.449219 119.769531 C 268.015625 118.824219 269.640625 117.964844 271.324219 117.199219 C 277.644531 114.390625 283.730469 115.394531 289.726562 118.261719 C 290.378906 118.585938 291.144531 118.910156 291.382812 119.855469 C 290.910156 120.773438 289.84375 120.683594 289.046875 120.890625 C 286.359375 121.539062 283.761719 122.425781 281.398438 123.902344 C 276.640625 126.917969 273.363281 130.902344 272.417969 136.605469 C 271.972656 139.234375 271.296875 141.832031 270.527344 144.402344 C 269.816406 146.765625 268.902344 149.011719 267.394531 151.019531 C 267.128906 151.375 266.835938 151.757812 266.804688 152.378906 C 267.867188 153.148438 269.109375 152.644531 270.230469 152.585938 C 274.601562 152.40625 278.945312 152.585938 283.257812 153.414062 C 286.003906 153.945312 286.507812 154.210938 287.808594 155.304688 C 287.925781 156.425781 287.007812 156.691406 286.300781 157.046875 C 281.101562 159.851562 276.316406 163.308594 271.621094 166.910156 C 270.351562 167.886719 269.199219 168.949219 268.105469 170.25 C 269.464844 171.578125 271 172.023438 272.476562 172.582031 C 275.609375 173.734375 278.503906 175.242188 281.074219 177.367188 C 284.351562 180.117188 286.183594 183.628906 286.625 187.855469 C 287.007812 191.546875 285.148438 194.914062 282.019531 196.390625 C 281.691406 196.539062 281.339844 196.746094 280.925781 196.539062 C 280.394531 196.125 280.660156 195.5625 280.660156 195.0625 C 280.660156 194.058594 280.746094 193.054688 280.660156 192.078125 C 280.246094 187.882812 278.207031 184.988281 273.246094 183.453125 C 268.488281 181.976562 264.648438 185.167969 262.875 189.273438 C 261.929688 191.488281 261.871094 193.820312 262.199219 196.273438 C 262.730469 200.289062 264.175781 203.980469 265.683594 207.675781 C 268.339844 214.292969 268.636719 220.90625 266.066406 227.613281 C 264.765625 230.980469 263.734375 234.4375 262.789062 237.890625 C 261.664062 242.085938 262.019531 246.253906 263.96875 250.210938 C 264.886719 252.042969 266.15625 253.519531 268.015625 254.433594 C 270.4375 255.644531 272.625 255.289062 274.515625 253.339844 C 276.90625 250.890625 277.46875 247.90625 276.878906 244.628906 C 276.492188 242.558594 275.519531 240.757812 274.25 239.074219 C 273.804688 238.484375 273.097656 238.011719 273.214844 237.125 C 273.511719 236.476562 274.070312 236.535156 274.601562 236.621094 C 279.800781 237.507812 283.523438 240.253906 285.148438 245.367188 C 286.742188 250.359375 285.472656 254.816406 281.75 258.421875 C 276.109375 263.914062 266.984375 264.121094 260.957031 259.042969 C 259.363281 257.683594 258.03125 256.089844 257.292969 254.109375 C 254.960938 247.875 253.660156 241.464844 254.042969 234.761719 C 254.132812 233.078125 254.488281 231.421875 254.695312 229.738281 C 254.8125 228.914062 255.050781 228.085938 254.753906 227.230469 C 254.015625 226.519531 253.160156 226.964844 252.359375 227.050781 C 248.285156 227.496094 244.414062 226.875 240.78125 224.925781 C 239.480469 224.246094 238.300781 223.390625 237.53125 222.089844 C 236.707031 220.671875 237 219.816406 238.476562 219.195312 C 239.542969 218.75 240.664062 218.457031 241.699219 217.953125 C 247.367188 215.207031 249.4375 209.417969 246.867188 203.628906 C 245.273438 200.082031 242.730469 197.394531 239.453125 195.355469 C 237.179688 193.96875 234.667969 193.820312 232.128906 194.234375 C 230.445312 194.5 228.847656 195.089844 227.429688 196.007812 C 222.261719 199.402344 218.804688 203.980469 217.859375 210.214844 C 217.769531 210.804688 217.832031 211.457031 217.503906 211.988281 C 216.855469 212.253906 216.707031 211.722656 216.5 211.367188 C 211.894531 203.894531 214.402344 194.410156 222.230469 190.097656 Z M 217.59375 220.878906 C 218.332031 221.113281 219.011719 221.46875 219.75 221.644531 C 221.816406 222.148438 222.910156 221.085938 222.410156 219.046875 C 222.289062 218.515625 222.054688 218.042969 221.878906 217.539062 C 219.367188 210.539062 220.546875 205.253906 226.398438 199.964844 C 230.710938 196.035156 238.210938 196.714844 241.84375 201.292969 C 244.386719 204.453125 244.59375 208 243.027344 211.664062 C 242.378906 213.226562 241.105469 214.203125 239.628906 214.941406 C 237.976562 215.796875 236.203125 216.242188 234.402344 216.625 C 233.957031 216.714844 233.484375 216.742188 233.042969 216.859375 C 231.121094 217.363281 230.679688 218.132812 231.359375 220.050781 C 232.511719 223.449219 234.667969 226.078125 237.886719 227.703125 C 240.929688 229.238281 244.148438 230.183594 247.546875 230.507812 C 248.992188 230.65625 250.410156 230.832031 252.125 231.039062 C 251.710938 234.820312 251.003906 238.394531 251.328125 242.058594 C 251.621094 245.660156 252.449219 249.148438 253.542969 252.808594 C 246.453125 250.269531 239.304688 249.945312 231.980469 251.539062 C 231.328125 249.621094 231.449219 247.757812 231.210938 245.957031 C 230.796875 242.796875 229.851562 239.84375 228.40625 237.007812 C 226.75 233.785156 224.0625 231.691406 220.667969 230.566406 C 218.863281 229.976562 218.125 230.390625 217.683594 232.25 C 217.296875 233.875 217.003906 235.558594 216.441406 237.152344 C 214.019531 243.859375 205.957031 245.484375 201.082031 240.226562 C 197.449219 236.296875 197.066406 229.945312 200.550781 225.898438 C 205.660156 219.933594 211.007812 218.75 217.59375 220.878906 Z M 86.414062 274.84375 C 88.597656 269.558594 92.027344 265.214844 96.25 261.433594 C 100.058594 258.007812 103.753906 254.433594 108.417969 252.277344 C 108.449219 251.097656 107.710938 250.566406 107.238281 249.914062 C 104.019531 245.453125 102.542969 240.492188 102.867188 234.996094 C 103.015625 232.574219 103.664062 230.300781 104.816406 228.203125 C 105.316406 227.289062 105.820312 226.3125 107.269531 225.960938 C 109.601562 232.988281 114.148438 238.21875 120.53125 241.703125 C 122.980469 243.0625 125.789062 243.652344 128.625 243.59375 C 129.066406 242.5 128.445312 241.792969 128.210938 241.023438 C 126.46875 235.144531 126.882812 229.503906 129.953125 224.15625 C 133.585938 217.804688 140.675781 214.824219 147.144531 216.890625 C 148.472656 217.304688 149.773438 217.804688 150.777344 218.78125 C 151.960938 219.933594 151.722656 220.996094 150.128906 221.46875 C 149.476562 221.675781 148.769531 221.675781 148.089844 221.765625 C 144.574219 222.265625 141.414062 223.476562 138.992188 226.195312 C 135.921875 229.621094 135.949219 234.082031 138.84375 237.6875 C 143.511719 243.503906 150.15625 244.15625 157.21875 241.671875 C 160.054688 240.667969 162.5625 239.042969 164.898438 237.152344 C 168.53125 234.230469 172.164062 231.277344 175.828125 228.410156 C 179.429688 225.605469 183.476562 224.304688 188.085938 225.132812 C 188.292969 225.160156 188.527344 225.132812 189.117188 225.132812 C 191.421875 219.078125 195.261719 214.617188 201.96875 213.613281 C 206.074219 212.992188 209.796875 214.054688 213.253906 216.476562 C 212.660156 217.363281 211.894531 217.097656 211.273438 217.15625 C 204.183594 217.804688 196.03125 224.660156 195.054688 231.71875 C 194.644531 234.671875 195.117188 237.332031 196.859375 239.78125 C 198.835938 242.5 201.230469 244.6875 204.300781 246.105469 C 210.121094 248.792969 215.96875 246.722656 218.777344 240.964844 C 219.21875 240.078125 219.515625 239.132812 219.898438 238.1875 C 220.636719 236.269531 221.730469 235.914062 223.382812 237.183594 C 224.507812 238.039062 225.304688 239.164062 225.925781 240.402344 C 227.816406 244.007812 228.199219 247.816406 227.84375 251.804688 C 227.785156 252.542969 227.371094 253.28125 227.902344 254.140625 C 229.144531 254.40625 230.414062 254.050781 231.65625 253.8125 C 239.75 252.367188 247.515625 253.785156 255.078125 256.679688 C 258.535156 258.007812 260.75 260.785156 262.199219 264.121094 C 265.0625 270.679688 262.964844 278.597656 257.292969 282.644531 C 249.878906 287.960938 239.480469 283.882812 237.652344 274.964844 C 237.472656 274.164062 237.238281 273.339844 237.769531 272.601562 C 238.804688 272.277344 239.277344 273.015625 239.835938 273.457031 C 241.816406 274.992188 244 276.027344 246.511719 276.292969 C 249.496094 276.589844 252.152344 275.789062 254.28125 273.632812 C 256.171875 271.714844 256.4375 269.46875 255.167969 267.105469 C 254.191406 265.273438 252.6875 264.003906 250.855469 263.117188 C 246.570312 261.082031 242.140625 260.84375 237.652344 262.292969 C 234.164062 263.414062 230.648438 264.566406 227.164062 265.71875 C 220.992188 267.757812 214.789062 267.460938 208.734375 265.007812 C 204.832031 263.445312 200.933594 261.847656 196.679688 261.375 C 192.632812 260.902344 189.117188 261.757812 186.222656 264.832031 C 184.835938 266.308594 184.15625 267.933594 184.039062 269.972656 C 183.800781 274.433594 187.523438 280.367188 194.761719 280.015625 C 195.589844 279.984375 196.414062 279.570312 197.332031 280.074219 C 197.566406 281.226562 196.886719 282.082031 196.207031 282.878906 C 194.289062 285.09375 191.808594 286.160156 188.851562 285.894531 C 184.421875 285.480469 180.820312 283.53125 178.011719 280.101562 C 175.945312 277.5625 174.496094 274.726562 173.40625 271.683594 C 172.871094 270.265625 172.339844 268.847656 171.394531 267.488281 C 169.917969 268.050781 169.09375 269.203125 168.292969 270.265625 C 165.605469 273.78125 162.828125 277.265625 160.554688 281.105469 C 159.609375 282.703125 158.695312 284.269531 157.75 285.863281 C 157.425781 286.394531 157.160156 287.015625 156.421875 286.984375 C 155.5625 286.957031 155.355469 286.21875 155.121094 285.566406 C 154.117188 282.730469 153.613281 279.777344 153.496094 276.792969 C 153.347656 273.574219 153.257812 270.355469 153.554688 267.136719 C 153.585938 266.75 153.671875 266.367188 153.40625 266.011719 C 153.113281 265.777344 152.816406 265.867188 152.578125 266.074219 C 149.273438 268.789062 145.253906 269.824219 141.238281 270.828125 C 140.203125 271.09375 139.140625 271.300781 138.078125 271.476562 C 129.332031 272.953125 124.546875 278.625 122.097656 286.71875 C 121.710938 288.019531 121.625 289.40625 120.855469 290.558594 C 119.675781 290.410156 119.347656 289.554688 119.023438 288.847656 C 116.070312 282.703125 115.15625 276.441406 118.257812 270.03125 C 119.140625 268.167969 120.148438 266.398438 121.0625 264.625 C 120.707031 263.855469 120.117188 263.976562 119.613281 264.035156 C 112.171875 264.921875 104.992188 266.722656 98.464844 270.589844 C 92.792969 273.960938 89.011719 278.746094 87.535156 285.273438 C 87.359375 286.039062 87.417969 286.984375 86.503906 287.578125 C 85.261719 287.042969 85.085938 285.894531 84.996094 284.769531 C 84.730469 281.375 85.113281 278.066406 86.414062 274.84375 Z M 86.414062 274.84375 " fill-opacity="1" fill-rule="nonzero"/><path fill="#000000" d="M 217.652344 204.808594 C 220.3125 198.871094 224.269531 194.292969 230.886719 192.726562 C 236.144531 191.488281 240.753906 192.699219 244.503906 196.746094 C 245.539062 197.867188 246.542969 199.019531 247.457031 200.261719 C 249.523438 203.097656 250.53125 206.285156 250.203125 209.773438 C 249.703125 214.851562 246.691406 218.070312 242.230469 220.167969 C 241.519531 220.496094 240.574219 220.523438 240.132812 221.320312 C 240.515625 222.207031 241.253906 222.472656 241.933594 222.828125 C 246.039062 224.953125 250.292969 225.632812 254.84375 224.511719 C 257.058594 223.980469 257.882812 224.777344 257.648438 226.992188 C 257.472656 228.589844 257.234375 230.183594 257.027344 231.777344 C 256.023438 239.222656 256.910156 246.429688 259.6875 253.429688 C 260.691406 255.96875 262.523438 257.773438 264.972656 258.925781 C 269.375 260.960938 273.746094 260.816406 277.972656 258.390625 C 284.441406 254.671875 285.324219 246.28125 279.832031 241.230469 C 279.535156 240.964844 279.269531 240.433594 278.679688 240.875 C 278.589844 241.644531 278.976562 242.351562 279.152344 243.089844 C 279.863281 246.429688 279.507812 249.648438 277.824219 252.660156 C 274.691406 258.363281 268.195312 259.128906 263.910156 254.226562 C 261.164062 251.097656 259.953125 247.375 260.277344 243.179688 C 260.542969 240.109375 261.074219 237.09375 261.960938 234.171875 C 262.609375 232.042969 263.140625 229.859375 263.96875 227.820312 C 266.511719 221.46875 266.039062 215.207031 263.644531 209.003906 C 262.136719 205.074219 260.277344 201.265625 259.921875 196.980469 C 259.539062 192.550781 259.6875 188.328125 263.054688 184.78125 C 266.15625 181.503906 269.816406 180.234375 274.070312 181.53125 C 278.207031 182.804688 281.398438 185.34375 282.371094 189.921875 C 282.550781 190.691406 282.429688 191.578125 283.023438 192.402344 C 283.996094 191.636719 284.144531 190.660156 284.175781 189.714844 C 284.351562 186.523438 283.496094 183.660156 281.398438 181.179688 C 279.003906 178.371094 276.019531 176.394531 272.625 175.0625 C 270.675781 174.296875 268.933594 173.234375 267.070312 172.347656 C 265.503906 171.578125 265.238281 170.398438 266.332031 169.007812 C 267.335938 167.738281 268.546875 166.675781 269.816406 165.699219 C 274.101562 162.480469 278.472656 159.378906 283.289062 156.957031 C 283.820312 156.691406 284.617188 156.601562 284.824219 155.539062 C 277.941406 154.503906 271.207031 154.152344 264.441406 155.777344 C 263.378906 156.042969 262.226562 156.515625 261.546875 155.332031 C 260.898438 154.210938 262.019531 153.53125 262.699219 152.878906 C 265.121094 150.457031 266.835938 147.621094 267.867188 144.316406 C 268.785156 141.390625 269.523438 138.40625 270.203125 135.421875 C 270.644531 133.386719 271.441406 131.464844 272.625 129.753906 C 275.726562 125.261719 279.742188 121.984375 284.914062 120.152344 C 285.5625 119.914062 286.449219 120.003906 286.863281 118.910156 C 282.105469 117.582031 277.46875 117.019531 272.832031 118.882812 C 270.023438 120.003906 267.367188 121.332031 265.238281 123.519531 C 264.886719 123.902344 264.441406 124.257812 263.96875 124.496094 C 263.140625 124.9375 262.464844 124.613281 262.226562 123.695312 C 262.136719 123.34375 262.136719 122.929688 262.167969 122.542969 C 262.640625 116.339844 263.496094 110.199219 265.710938 104.347656 C 268.046875 98.203125 271.5 92.886719 276.820312 88.871094 C 277.113281 88.664062 277.5 88.515625 277.46875 87.835938 C 274.691406 88.753906 272.242188 90.140625 270.230469 92.089844 C 264.621094 97.40625 258.976562 102.753906 255.492188 109.84375 C 255.402344 110.050781 255.285156 110.257812 255.167969 110.433594 C 254.28125 111.734375 253.425781 111.910156 252.066406 111.023438 C 251.445312 110.609375 250.855469 110.078125 250.265625 109.605469 C 245.449219 105.796875 239.953125 104.378906 233.898438 105.085938 C 233.191406 105.175781 232.394531 105.175781 231.859375 105.738281 C 231.980469 106.210938 232.246094 106.359375 232.539062 106.476562 C 235.878906 108.011719 238.535156 110.375 241.105469 112.945312 C 244.445312 116.253906 246.363281 120.242188 247.074219 124.847656 C 247.339844 126.679688 247.488281 128.511719 247.398438 130.34375 C 247.308594 132.234375 246.453125 132.734375 244.621094 132.144531 C 244.03125 131.9375 243.5 131.671875 242.9375 131.4375 C 239.777344 130.046875 236.46875 129.515625 233.042969 129.929688 C 228.199219 130.492188 224.300781 132.707031 221.816406 136.988281 C 220.8125 138.671875 220.132812 140.535156 220.429688 142.808594 C 221.316406 142.21875 221.40625 141.417969 221.757812 140.769531 C 223.382812 137.699219 225.628906 135.246094 228.964844 134.003906 C 234.636719 131.910156 241.019531 134.625 244.089844 140.355469 C 247.101562 146.027344 247.132812 151.789062 244.828125 157.664062 C 242.996094 162.332031 239.75 165.996094 236.648438 169.804688 C 234.578125 172.347656 232.128906 174.621094 230.472656 177.484375 C 228.996094 180.054688 227.933594 182.714844 228.316406 185.785156 C 228.820312 189.980469 228.820312 189.980469 224.917969 191.578125 C 220.636719 193.320312 217.976562 196.539062 216.796875 200.910156 C 216.265625 202.859375 215.96875 204.898438 216.707031 207.054688 C 217.386719 206.316406 217.359375 205.488281 217.652344 204.808594 Z M 261.519531 225.132812 C 260.957031 228.765625 260.128906 232.339844 259.480469 235.941406 C 259.242188 237.359375 259.183594 238.808594 259.035156 240.226562 C 258.179688 238.570312 258.238281 236.859375 258.417969 235.117188 C 258.742188 232.074219 259.125 229.03125 259.480469 225.988281 C 260.070312 220.90625 259.835938 215.914062 257.972656 211.070312 C 257.796875 210.570312 257.707031 210.039062 257.058594 209.507812 C 257.058594 211.425781 257.472656 213.140625 257.382812 214.910156 C 257.265625 216.65625 257 218.367188 256.230469 220.050781 C 255.699219 217.746094 256.171875 215.265625 255.253906 213.050781 C 254.398438 212.875 254.371094 213.582031 254.164062 213.996094 C 253.453125 215.53125 252.714844 217.039062 251.769531 218.425781 C 250.914062 219.695312 249.851562 220.671875 247.871094 221.378906 C 248.785156 219.816406 249.9375 219.078125 250.410156 217.867188 C 250.914062 216.65625 251.445312 215.472656 251.949219 214.292969 C 253.925781 209.507812 253.71875 204.691406 251.679688 200.023438 C 250.027344 196.242188 246.808594 194.027344 243.234375 192.253906 C 240.515625 190.898438 237.5625 190.425781 234.578125 190.097656 C 233.929688 190.039062 233.21875 190.128906 232.453125 189.65625 C 233.160156 188.886719 234.019531 188.886719 234.785156 188.769531 C 242.4375 187.558594 251.710938 192.136719 254.371094 199.316406 C 254.960938 200.910156 255.964844 202.269531 256.910156 203.65625 C 261.546875 210.183594 262.699219 217.421875 261.519531 225.132812 Z M 233.277344 182.09375 C 234.757812 179.40625 236.378906 176.835938 238.09375 174.265625 C 241.84375 168.59375 245.625 162.953125 248.933594 156.957031 C 252.6875 150.105469 251.621094 144.046875 247.28125 138.113281 C 246.421875 136.929688 245.449219 135.867188 244.355469 134.863281 C 244.089844 134.625 243.765625 134.359375 243.914062 133.679688 C 248.167969 135.570312 251.003906 138.644531 252.6875 142.632812 C 253.484375 142.691406 253.511719 142.246094 253.542969 141.890625 C 254.042969 134.625 254.488281 127.417969 251.535156 120.417969 C 249.792969 116.3125 247.042969 113.179688 243.792969 110.316406 C 243.441406 110.019531 243.117188 109.726562 242.761719 109.398438 C 242.703125 109.371094 242.703125 109.253906 242.703125 109.191406 C 244.679688 109.222656 247.25 110.816406 250.027344 113.507812 C 252.242188 115.632812 253.511719 118.292969 254.929688 121.511719 C 257.796875 113.742188 260.101562 106.269531 265.003906 100.007812 C 259.6875 112 255.285156 124.140625 256.496094 137.699219 C 257.738281 137.667969 258.089844 136.574219 258.652344 135.894531 C 261.785156 131.910156 265.238281 128.246094 268.960938 124.789062 C 270.941406 122.957031 273.039062 121.304688 275.34375 119.886719 C 276.199219 119.355469 277.113281 118.644531 278.265625 119.265625 C 278.296875 119.976562 277.734375 120.035156 277.378906 120.210938 C 272.566406 122.929688 269.078125 126.945312 266.480469 131.761719 C 263.410156 137.460938 261.015625 143.398438 259.804688 149.777344 C 258.828125 154.800781 257.5 159.792969 257.058594 164.902344 C 257 165.582031 256.761719 166.261719 257.117188 167.089844 C 258.710938 166.585938 259.421875 165.019531 260.660156 164.105469 C 261.902344 163.21875 263.113281 162.246094 264.441406 161.507812 C 265.859375 160.738281 267.277344 159.96875 268.753906 159.320312 C 270.113281 158.699219 271.53125 158.109375 273.15625 157.871094 C 272.890625 158.757812 272.242188 158.878906 271.738281 159.144531 C 269.550781 160.265625 267.515625 161.652344 265.503906 163.042969 C 261.371094 165.9375 258.355469 169.71875 256.761719 174.53125 C 256.199219 176.214844 256.261719 177.988281 256.46875 179.96875 C 258.355469 179.230469 259.597656 177.664062 261.371094 176.984375 C 263.289062 176.214844 265.238281 176.070312 267.25 176.394531 C 269.109375 176.6875 270.941406 177.074219 272.386719 178.667969 C 271.296875 178.519531 270.171875 178.371094 269.078125 178.226562 C 266.363281 177.898438 263.734375 178.136719 261.339844 179.671875 C 258.269531 181.652344 256.671875 184.429688 256.703125 188.121094 C 256.703125 189.449219 257.117188 190.867188 255.90625 192.253906 C 252.421875 190.246094 248.699219 188.742188 244.800781 187.648438 C 240.839844 186.554688 236.792969 186.496094 232.777344 186.289062 C 231.921875 184.664062 232.601562 183.335938 233.277344 182.09375 Z M 233.277344 182.09375 " fill-opacity="1" fill-rule="nonzero"/><path fill="#000000" d="M 89.78125 275.671875 C 93.855469 270.5625 99.085938 267.105469 105.171875 264.832031 C 110.84375 262.734375 116.71875 261.878906 122.6875 261.375 C 123.128906 261.347656 123.601562 261.316406 124.074219 261.40625 C 125.285156 261.613281 125.671875 262.351562 125.019531 263.355469 C 124.578125 264.0625 123.925781 264.625 123.394531 265.273438 C 118.492188 271.242188 117.28125 277.945312 119.378906 285.332031 C 119.46875 285.625 119.554688 285.921875 119.941406 285.953125 C 120 285.921875 120.117188 285.921875 120.117188 285.863281 C 120.5 284.859375 120.855469 283.855469 121.296875 282.878906 C 124.519531 275.820312 129.390625 270.710938 137.308594 269.054688 C 139.847656 268.523438 142.359375 267.757812 144.839844 267.046875 C 148.148438 266.101562 151.015625 264.386719 153.4375 261.9375 C 153.851562 261.492188 154.292969 261.050781 154.824219 260.726562 C 155.59375 260.222656 156.332031 260.546875 156.65625 261.40625 C 156.863281 261.9375 156.773438 262.46875 156.625 262.972656 C 154.941406 268.847656 155.296875 274.785156 155.769531 280.753906 C 155.859375 281.785156 155.917969 282.851562 156.421875 283.765625 C 157.277344 283.707031 157.335938 283.085938 157.570312 282.644531 C 159.757812 278.066406 162.742188 273.960938 165.695312 269.851562 C 166.816406 268.289062 168.058594 266.839844 169.535156 265.601562 C 171.042969 264.328125 172.28125 264.625 173.167969 266.425781 C 174.054688 268.199219 175.058594 269.914062 175.796875 271.773438 C 176.800781 274.433594 178.367188 276.792969 180.257812 278.949219 C 182.914062 281.964844 186.253906 283.382812 190.210938 283.324219 C 191.214844 283.292969 192.308594 283.234375 192.960938 282.199219 C 192.367188 281.609375 191.71875 281.640625 191.128906 281.550781 C 186.164062 280.78125 183.476562 277.414062 182.207031 273.015625 C 180.90625 268.582031 182.265625 264.714844 185.988281 261.789062 C 187.496094 260.609375 189 259.335938 190.980469 259.128906 C 195.527344 258.65625 199.988281 258.925781 204.300781 260.667969 C 206.015625 261.347656 207.726562 262.027344 209.441406 262.703125 C 215.734375 265.15625 222.023438 265.6875 228.464844 263.175781 C 231.152344 262.113281 233.988281 261.375 236.792969 260.609375 C 239.601562 259.871094 242.496094 259.398438 245.417969 259.425781 C 249.171875 259.457031 252.480469 260.785156 255.226562 263.324219 C 259.570312 267.34375 259.007812 273.457031 253.984375 276.589844 C 250.882812 278.539062 247.457031 279.128906 243.855469 278.300781 C 243.085938 278.125 242.316406 277.621094 241.164062 277.945312 C 243.175781 280.605469 245.597656 282.140625 248.726562 282.464844 C 253.453125 282.9375 257.738281 280.308594 259.804688 275.878906 C 262.402344 270.265625 261.164062 260.785156 252.65625 258.214844 C 251.476562 257.859375 250.324219 257.417969 249.140625 257.152344 C 243.117188 255.734375 237.058594 255.261719 230.917969 256.382812 C 229.644531 256.621094 228.316406 256.738281 227.046875 256.769531 C 225.6875 256.796875 225.097656 256.089844 225.15625 254.757812 C 225.1875 254.316406 225.304688 253.84375 225.421875 253.398438 C 226.457031 249 225.570312 244.894531 223.53125 240.964844 C 223.175781 240.316406 222.941406 239.546875 222.113281 239.222656 C 221.34375 239.546875 221.375 240.34375 221.109375 240.933594 C 217.859375 249.148438 208.96875 251.921875 201.585938 247.050781 C 199.839844 245.898438 198.304688 244.507812 196.859375 243.03125 C 193.578125 239.664062 192.398438 235.589844 193.285156 230.980469 C 194.613281 223.921875 199.28125 219.667969 205.542969 216.859375 C 206.191406 216.566406 207.019531 216.566406 207.550781 215.886719 C 206.042969 215.324219 205.632812 215.207031 204.183594 215.382812 C 198.453125 216.035156 194.316406 218.839844 192.074219 224.273438 C 190.566406 227.9375 190.566406 227.9375 186.785156 227.40625 C 185.074219 227.171875 183.417969 227.347656 181.792969 227.878906 C 179.105469 228.734375 176.800781 230.210938 174.703125 232.015625 C 173.078125 233.402344 171.484375 234.851562 169.832031 236.207031 C 166.285156 239.132812 162.742188 242.085938 158.398438 243.828125 C 151.839844 246.488281 145.460938 246.253906 139.554688 242.265625 C 131.875 237.066406 132.082031 226.757812 139.878906 221.734375 C 140.527344 221.320312 141.238281 220.996094 141.886719 220.613281 C 142.300781 220.347656 142.980469 220.347656 143.007812 219.609375 C 142.152344 219.222656 141.355469 219.488281 140.527344 219.726562 C 136.511719 220.847656 133.675781 223.390625 131.933594 227.109375 C 130.160156 230.863281 129.925781 234.792969 130.957031 238.777344 C 131.339844 240.253906 131.902344 241.671875 132.492188 243.089844 C 133.585938 245.71875 132.9375 246.605469 130.070312 246.546875 C 128.152344 246.519531 126.230469 246.339844 124.371094 245.957031 C 121.832031 245.394531 119.261719 244.746094 117.132812 243.152344 C 113.144531 240.109375 109.601562 236.652344 107.296875 232.074219 C 107.089844 231.660156 107.03125 230.949219 106.175781 231.097656 C 105.730469 232.222656 105.613281 233.433594 105.523438 234.644531 C 105.199219 240.699219 107.238281 245.898438 111.109375 250.476562 C 112.910156 252.574219 112.734375 253.371094 110.28125 254.671875 C 107.976562 255.910156 105.671875 257.121094 103.695312 258.835938 C 100.207031 261.847656 96.78125 264.890625 93.621094 268.230469 C 91.761719 270.179688 90.285156 272.421875 89.101562 274.84375 C 88.894531 275.289062 88.421875 275.730469 88.835938 276.320312 C 89.398438 276.351562 89.542969 275.9375 89.78125 275.671875 Z M 189.769531 232.988281 C 189.828125 232.753906 189.859375 232.546875 189.976562 232.339844 C 190.035156 232.222656 190.183594 232.132812 190.417969 231.867188 C 191.128906 232.722656 190.980469 233.699219 191.039062 234.613281 C 191.363281 238.570312 192.515625 242.265625 194.820312 245.542969 C 199.308594 251.894531 207.285156 254.316406 214.550781 251.421875 C 217.09375 250.417969 219.75 249.558594 221.789062 247.492188 C 220.546875 251.480469 216.53125 252.128906 213.457031 254.257812 C 215.882812 255.585938 218.449219 254.550781 220.992188 255.554688 C 217.269531 256.914062 213.753906 256.914062 210.0625 256 C 210.445312 256.855469 211.007812 256.945312 211.480469 257.121094 C 216.148438 258.894531 220.960938 259.457031 225.925781 258.863281 C 229.113281 258.480469 232.304688 258.066406 235.496094 257.742188 C 237.296875 257.566406 239.097656 257.625 240.78125 257.859375 C 240.898438 258.304688 240.839844 258.453125 240.632812 258.453125 C 235.90625 258.421875 231.417969 259.839844 226.839844 260.667969 C 218.628906 262.144531 211.007812 260.933594 204.09375 256.058594 C 202.855469 255.171875 201.585938 254.285156 200.136719 253.726562 C 196.445312 252.308594 193.816406 249.707031 191.953125 246.3125 C 189.738281 242.144531 188.644531 237.746094 189.769531 232.988281 Z M 122.242188 254.226562 C 116.070312 251.777344 111.847656 247.996094 109.542969 242.058594 C 110.398438 241.910156 110.605469 242.472656 110.902344 242.855469 C 116.777344 250.296875 124.636719 253.253906 133.910156 253.132812 C 135.683594 253.105469 137.425781 253.132812 139.199219 253.105469 C 140.644531 253.105469 142.09375 253.046875 143.746094 252.515625 C 142.566406 251.242188 141.03125 250.917969 139.878906 250.003906 C 138.726562 249.085938 137.632812 248.140625 136.746094 246.992188 C 135.832031 245.78125 135.003906 244.507812 134.265625 242.914062 C 135.269531 242.972656 135.566406 243.652344 136.039062 244.066406 C 139.316406 247.195312 142.980469 249.5 147.527344 250.445312 C 151.015625 251.15625 153.996094 249.914062 157.011719 248.496094 C 163.539062 245.394531 169.386719 241.171875 175.355469 237.152344 C 177.71875 235.558594 180.140625 234.113281 182.589844 232.695312 C 182.855469 232.546875 183.121094 232.398438 183.417969 232.28125 C 186.578125 230.832031 187.375 231.335938 187.347656 234.792969 C 187.257812 241.554688 189.117188 247.789062 192.308594 253.695312 C 192.488281 254.019531 192.664062 254.375 192.8125 254.730469 C 192.871094 254.847656 192.8125 255.023438 192.8125 255.230469 C 192.28125 256.117188 191.363281 255.882812 190.566406 255.910156 C 189.414062 255.96875 188.261719 255.824219 187.140625 256.058594 C 182.058594 257.0625 178.664062 261.433594 178.898438 266.691406 C 178.988281 268.347656 179.222656 270 179.402344 271.773438 C 177.777344 270.296875 176.742188 266.664062 176.980469 263.710938 C 177.214844 260.753906 178.957031 258.511719 180.878906 256.058594 C 178.691406 255.527344 176.832031 255.617188 175.027344 256.207031 C 169.976562 257.917969 166.167969 261.257812 163.242188 265.660156 C 162.152344 267.3125 161.144531 269.054688 160.113281 270.738281 C 159.757812 271.300781 159.550781 271.949219 158.84375 272.421875 C 159.34375 268.167969 162.5625 262.644531 167.941406 256.679688 C 167.554688 255.96875 166.875 256.265625 166.316406 256.296875 C 162.535156 256.472656 158.902344 257.445312 155.207031 258.125 C 147.617188 259.484375 140.320312 261.613281 133.46875 265.246094 C 128.210938 268.023438 123.75 271.625 120.796875 276.882812 C 120.621094 277.207031 120.53125 277.621094 119.96875 277.652344 C 119.46875 276.441406 120.058594 275.464844 120.679688 274.492188 C 122.125 272.214844 123.78125 270.117188 125.609375 268.140625 C 129.039062 264.417969 132.757812 260.992188 136.71875 257.859375 C 137.367188 257.359375 138.136719 256.972656 138.609375 255.910156 C 125.078125 254.523438 113 258.894531 101.035156 264.152344 C 107.179688 259.21875 114.5625 257.0625 122.242188 254.226562 Z M 122.242188 254.226562 " fill-opacity="1" fill-rule="nonzero"/><path fill="#000000" d="M 241.550781 247.757812 C 245.359375 247.730469 248.609375 244.449219 248.519531 240.699219 C 248.460938 237.007812 245.417969 234.023438 241.726562 234.050781 C 237.859375 234.082031 234.726562 237.214844 234.757812 241.082031 C 234.785156 244.65625 237.945312 247.789062 241.550781 247.757812 Z M 241.3125 236.652344 C 243.589844 236.621094 245.390625 238.453125 245.332031 240.726562 C 245.300781 242.914062 243.5 244.65625 241.371094 244.597656 C 239.246094 244.566406 237.53125 242.796875 237.503906 240.609375 C 237.445312 238.394531 239.097656 236.679688 241.3125 236.652344 Z M 241.3125 236.652344 " fill-opacity="1" fill-rule="nonzero"/><path fill="#000000" d="M 254.78125 189.773438 C 253.335938 170.988281 255.253906 153.148438 262.019531 136.042969 C 261.664062 135.867188 261.488281 136.042969 261.371094 136.222656 C 258.652344 139.46875 256.320312 142.957031 255.109375 147.0625 C 254.105469 150.429688 253.097656 153.796875 251.476562 156.957031 C 249.378906 161.0625 246.777344 164.84375 244.265625 168.65625 C 241.519531 172.789062 238.832031 176.984375 236.144531 181.148438 C 235.582031 182.003906 234.875 182.863281 234.992188 184.339844 C 241.757812 184.574219 248.167969 186.289062 254.78125 189.773438 Z M 251.917969 163.070312 C 252.152344 170.425781 251.621094 177.691406 251.769531 185.433594 C 247.722656 183.628906 243.824219 182.714844 239.304688 182.390625 C 243.5 175.476562 247.457031 169.15625 251.917969 163.070312 Z M 251.917969 163.070312 " fill-opacity="1" fill-rule="nonzero"/><path fill="#000000" d="M 136.894531 261.199219 C 137.574219 260.960938 137.988281 260.84375 138.402344 260.667969 C 146.582031 257.210938 155.296875 255.703125 163.980469 254.375 C 171.722656 253.195312 179.546875 253.339844 187.347656 253.84375 C 188.292969 253.902344 189.296875 254.257812 190.300781 253.519531 C 186.902344 247.464844 185.457031 240.964844 184.984375 234.140625 C 183.476562 234.140625 182.503906 234.9375 181.5 235.589844 C 176.035156 239.105469 170.570312 242.648438 165.164062 246.28125 C 160.023438 249.707031 154.617188 252.542969 148.621094 254.078125 C 144.605469 255.113281 141.238281 257.328125 137.929688 259.722656 C 137.574219 259.988281 137.042969 260.253906 136.894531 261.199219 Z M 164.1875 250.652344 C 169.859375 246.636719 175.828125 243.0625 181.703125 239.371094 C 182.03125 239.164062 182.355469 238.984375 183.210938 239.132812 C 183.507812 243.0625 184.304688 246.902344 186.078125 250.476562 C 184.394531 251.066406 166.875 251.449219 164.21875 251.066406 C 164.1875 251.007812 164.160156 250.917969 164.160156 250.859375 C 164.128906 250.800781 164.160156 250.710938 164.1875 250.652344 Z M 164.1875 250.652344 " fill-opacity="1" fill-rule="nonzero"/><path fill="#000000" d="M 241.492188 242.441406 C 242.523438 242.382812 243.351562 241.464844 243.234375 240.433594 C 243.117188 239.429688 242.140625 238.660156 241.105469 238.75 C 240.160156 238.867188 239.421875 239.695312 239.480469 240.640625 C 239.542969 241.671875 240.488281 242.5 241.492188 242.441406 Z M 241.492188 242.441406 " fill-opacity="1" fill-rule="nonzero"/></svg>